<svg xmlns="http://www.w3.org/2000/svg" width="20" height="20" viewBox="0 0 21 20" fill="none">
    <path d="M5.27344 6.75C5.27344 5.50736 6.2808 4.5 7.52344 4.5C8.76608 4.5 9.77344 5.50736 9.77344 6.75C9.77344 7.99264 8.76608 9 7.52344 9C6.2808 9 5.27344 7.99264 5.27344 6.75ZM7.52344 3.5C5.72851 3.5 4.27344 4.95507 4.27344 6.75C4.27344 8.54493 5.72851 10 7.52344 10C9.31836 10 10.7734 8.54493 10.7734 6.75C10.7734 4.95507 9.31836 3.5 7.52344 3.5ZM13.2102 15.1453C13.7483 15.3644 14.4253 15.5 15.273 15.5C17.1544 15.5 18.1948 14.8322 18.7423 14.0656C19.0069 13.6953 19.1387 13.3257 19.2047 13.0486C19.2378 12.9096 19.2548 12.7919 19.2636 12.706C19.268 12.663 19.2703 12.6277 19.2716 12.6013C19.2722 12.5881 19.2725 12.5771 19.2727 12.5685L19.2729 12.5574L19.273 12.5533L19.273 12.5515L19.273 12.55V12.5C19.273 11.6716 18.6014 11 17.773 11H13.1445C13.3836 11.2895 13.5646 11.6288 13.6696 12H17.773C18.0491 12 18.273 12.2239 18.273 12.5V12.5462L18.2727 12.5537C18.2722 12.5633 18.2712 12.5806 18.2687 12.6045C18.2638 12.6526 18.2535 12.7263 18.2319 12.817C18.1885 12.9993 18.1016 13.2422 17.9286 13.4844C17.6012 13.9428 16.8916 14.5 15.273 14.5C14.5414 14.5 13.9955 14.3862 13.5866 14.219C13.5046 14.4984 13.3851 14.8153 13.2102 15.1453ZM2.27344 13C2.27344 11.8954 3.16887 11 4.27344 11H10.7734C11.878 11 12.7734 11.8954 12.7734 13V13.0625L12.7734 13.064L12.7734 13.0658L12.7734 13.0705L12.7732 13.0835C12.7729 13.0938 12.7725 13.1074 12.7717 13.1241C12.7702 13.1574 12.7673 13.2031 12.7617 13.2593C12.7507 13.3716 12.729 13.5272 12.6865 13.7118C12.6017 14.08 12.432 14.5719 12.0911 15.0655C11.39 16.0801 10.0366 17 7.52344 17C5.01029 17 3.65684 16.0801 2.95582 15.0655C2.61484 14.5719 2.44519 14.08 2.36041 13.7118C2.3179 13.5272 2.29622 13.3716 2.28513 13.2593C2.27958 13.2031 2.27666 13.1574 2.27513 13.1241C2.27436 13.1074 2.27394 13.0938 2.27371 13.0835L2.27349 13.0705L2.27345 13.0658L2.27344 13.064L2.27344 13.0625V13ZM3.27344 13.0602L3.27346 13.0612L3.27407 13.0781C3.27485 13.0951 3.27657 13.1233 3.2803 13.1611C3.28777 13.2368 3.3032 13.3497 3.3349 13.4874C3.39856 13.7638 3.52579 14.1312 3.77855 14.497C4.26503 15.2012 5.28659 16 7.52344 16C9.76029 16 10.7818 15.2012 11.2683 14.497C11.5211 14.1312 11.6483 13.7638 11.712 13.4874C11.7437 13.3497 11.7591 13.2368 11.7666 13.1611C11.7703 13.1233 11.772 13.0951 11.7728 13.0781L11.7734 13.0612L11.7734 13.0602V13C11.7734 12.4477 11.3257 12 10.7734 12H4.27344C3.72115 12 3.27344 12.4477 3.27344 13V13.0602ZM13.7734 7.5C13.7734 6.67157 14.445 6 15.2734 6C16.1019 6 16.7734 6.67157 16.7734 7.5C16.7734 8.32843 16.1019 9 15.2734 9C14.445 9 13.7734 8.32843 13.7734 7.5ZM15.2734 5C13.8927 5 12.7734 6.11929 12.7734 7.5C12.7734 8.88071 13.8927 10 15.2734 10C16.6541 10 17.7734 8.88071 17.7734 7.5C17.7734 6.11929 16.6541 5 15.2734 5Z" fill="black" fill-opacity="0.76"/>
</svg>