<svg xmlns="http://www.w3.org/2000/svg" width="20" height="20" viewBox="0 0 20 20" fill="none">
    <path d="M10.5 16C10.5 16.2455 10.3231 16.4496 10.0899 16.4919L10 16.5L4 16.5C2.67452 16.5 1.58996 15.4685 1.50532 14.1644L1.5 14L1.5 6C1.5 4.67452 2.53154 3.58996 3.83562 3.50532L4 3.5L10 3.5C10.2761 3.5 10.5 3.72386 10.5 4C10.5 4.24546 10.3231 4.44961 10.0899 4.49194L10 4.5L4 4.5C3.2203 4.5 2.57955 5.09489 2.50687 5.85554L2.5 6L2.5 14C2.5 14.7797 3.09489 15.4204 3.85554 15.4931L4 15.5L10 15.5C10.2761 15.5 10.5 15.7239 10.5 16ZM13.6109 5.40381L17.8536 9.64645C18.0271 9.82001 18.0464 10.0894 17.9114 10.2843L17.8536 10.3536L13.6109 14.5962C13.4157 14.7915 13.0991 14.7915 12.9038 14.5962C12.7302 14.4226 12.711 14.1532 12.846 13.9583L12.9038 13.8891L16.293 10.5L7 10.5C6.75454 10.5 6.55039 10.3231 6.50806 10.0899L6.5 10C6.5 9.75454 6.67687 9.55039 6.91012 9.50806L7 9.5L16.293 9.5L12.9038 6.11091C12.7302 5.93735 12.711 5.66792 12.846 5.47305L12.9038 5.40381C13.0774 5.23024 13.3468 5.21095 13.5417 5.34595L13.6109 5.40381L17.8536 9.64645L13.6109 5.40381Z" fill="black" fill-opacity="0.76"/>
</svg>