<svg width="33" height="32" viewBox="0 0 33 32" fill="none" xmlns="http://www.w3.org/2000/svg">
<rect x="0.773438" width="32" height="32" rx="8" fill="#F84F4F"/>
<g clip-path="url(#clip0_6470_2279)">
<path d="M23.5234 23.875H10.0234C8.78242 23.875 7.77344 22.866 7.77344 21.625V10.375C7.77344 9.13398 8.78242 8.125 10.0234 8.125H14.1543C14.752 8.125 15.325 8.36055 15.7469 8.78242L16.6785 9.71406C17.1004 10.1359 17.6734 10.3715 18.2711 10.3715H23.5234C24.7645 10.3715 25.7734 11.3805 25.7734 12.6215V21.625C25.7734 22.866 24.7645 23.875 23.5234 23.875ZM15.6484 14.3125V16H13.9609C13.6516 16 13.3984 16.2531 13.3984 16.5625V17.6875C13.3984 17.9969 13.6516 18.25 13.9609 18.25H15.6484V19.9375C15.6484 20.2469 15.9016 20.5 16.2109 20.5H17.3359C17.6453 20.5 17.8984 20.2469 17.8984 19.9375V18.25H19.5859C19.8953 18.25 20.1484 17.9969 20.1484 17.6875V16.5625C20.1484 16.2531 19.8953 16 19.5859 16H17.8984V14.3125C17.8984 14.0031 17.6453 13.75 17.3359 13.75H16.2109C15.9016 13.75 15.6484 14.0031 15.6484 14.3125Z" fill="white"/>
</g>
<defs>
<clipPath id="clip0_6470_2279">
<rect width="18" height="18" fill="white" transform="translate(7.77344 7)"/>
</clipPath>
</defs>
</svg>
