<svg xmlns="http://www.w3.org/2000/svg" width="20" height="20" viewBox="0 0 21 20" fill="none">
    <path d="M16.2734 4C17.6541 4 18.7734 5.11929 18.7734 6.5V14.5C18.7734 15.8807 17.6541 17 16.2734 17H5.27344C3.89273 17 2.77344 15.8807 2.77344 14.5V6.5C2.77344 5.11929 3.89273 4 5.27344 4H16.2734ZM17.7734 7.961L11.0269 11.931C10.8966 12.0077 10.74 12.0205 10.6009 11.9693L10.5199 11.931L3.77344 7.963V14.5C3.77344 15.3284 4.44501 16 5.27344 16H16.2734C17.1019 16 17.7734 15.3284 17.7734 14.5V7.961ZM16.2734 5H5.27344C4.44501 5 3.77344 5.67157 3.77344 6.5V6.802L10.7734 10.9199L17.7734 6.801V6.5C17.7734 5.67157 17.1019 5 16.2734 5Z" fill="black" fill-opacity="0.76"/>
</svg>