<svg xmlns="http://www.w3.org/2000/svg" width="24" height="24" viewBox="0 0 24 24" fill="none">
    <rect width="24" height="24" rx="4" fill="#F84F4F"/>
    <g clip-path="url(#clip0_6769_1584)">
        <path d="M17.25 18.125H6.75C5.78477 18.125 5 17.3402 5 16.375V7.625C5 6.65977 5.78477 5.875 6.75 5.875H9.96289C10.4277 5.875 10.8734 6.0582 11.2016 6.38633L11.9262 7.11094C12.2543 7.43906 12.7 7.62227 13.1648 7.62227H17.25C18.2152 7.62227 19 8.40703 19 9.37227V16.375C19 17.3402 18.2152 18.125 17.25 18.125ZM11.125 10.6875V12H9.8125C9.57188 12 9.375 12.1969 9.375 12.4375V13.3125C9.375 13.5531 9.57188 13.75 9.8125 13.75H11.125V15.0625C11.125 15.3031 11.3219 15.5 11.5625 15.5H12.4375C12.6781 15.5 12.875 15.3031 12.875 15.0625V13.75H14.1875C14.4281 13.75 14.625 13.5531 14.625 13.3125V12.4375C14.625 12.1969 14.4281 12 14.1875 12H12.875V10.6875C12.875 10.4469 12.6781 10.25 12.4375 10.25H11.5625C11.3219 10.25 11.125 10.4469 11.125 10.6875Z" fill="white"/>
    </g>
    <defs>
        <clipPath id="clip0_6769_1584">
            <rect width="14" height="14" fill="white" transform="translate(5 5)"/>
        </clipPath>
    </defs>
</svg>