<svg xmlns="http://www.w3.org/2000/svg" width="20" height="20" viewBox="0 0 21 20" fill="none">
    <path d="M14.7734 3C16.3711 3 17.6771 4.24892 17.7683 5.82373L17.7734 6V10.3787C17.7734 10.8502 17.6069 11.3045 17.3065 11.6631L17.1877 11.7929L12.5663 16.4142C12.2329 16.7476 11.7939 16.9511 11.328 16.9923L11.1521 17H6.77344C5.17576 17 3.86978 15.7511 3.77853 14.1763L3.77344 14V6C3.77344 4.40232 5.02236 3.09634 6.59716 3.00509L6.77344 3H14.7734ZM14.7734 4H6.77344C5.71908 4 4.85527 4.81588 4.77892 5.85074L4.77344 6V14C4.77344 15.0544 5.58932 15.9182 6.62418 15.9945L6.77344 16H10.7734V13C10.7734 11.4023 12.0224 10.0963 13.5972 10.0051L13.7734 10H16.7734V6C16.7734 4.94564 15.9576 4.08183 14.9227 4.00549L14.7734 4ZM16.5559 11.0013L13.7734 11C12.7191 11 11.8553 11.8159 11.7789 12.8507L11.7734 13V15.781L11.8592 15.7071L16.4805 11.0858C16.5074 11.059 16.5325 11.0307 16.5559 11.0013Z" fill="black" fill-opacity="0.76"/>
</svg>