<svg xmlns="http://www.w3.org/2000/svg" width="20" height="20" viewBox="0 0 21 20" fill="none">
    <path d="M10.7711 2C13.92 2 16.515 4.33488 16.7556 7.3554L16.7689 7.57762L16.7735 7.80214L16.7725 11.398L17.6979 13.6202C17.7204 13.6743 17.7381 13.7302 17.7508 13.7871L17.7661 13.8733L17.7747 14.0046C17.7747 14.4526 17.4782 14.8387 17.0256 14.9677L16.9092 14.9945L16.7747 15.0046L13.2731 15.004L13.2681 15.1653C13.183 16.469 12.0986 17.5 10.7735 17.5C9.44797 17.5 8.36341 16.4685 8.27877 15.1644L8.27305 15.004L4.77235 15.0046C4.68439 15.0046 4.59702 14.993 4.51246 14.9702L4.388 14.9277C3.97722 14.7567 3.73525 14.3392 3.78565 13.8757L3.80674 13.7483L3.84916 13.6202L4.77245 11.401L4.77354 7.79281L4.77784 7.56824C4.90045 4.45115 7.54448 2 10.7711 2ZM12.2731 15.004H9.27305L9.28041 15.1454C9.34895 15.8581 9.91619 16.425 10.629 16.4931L10.7735 16.5C11.5531 16.5 12.1939 15.9051 12.2666 15.1445L12.2731 15.004ZM10.7711 3C8.14855 3 6.00061 4.92372 5.79059 7.38498L5.77737 7.59723L5.77345 7.80214V11.5L5.73505 11.6922L4.77234 14.0046L16.7301 14.0066L16.7753 14.0045L15.8119 11.6922L15.7735 11.5L15.7736 7.81241L15.7695 7.60831C15.6643 5.0349 13.4681 3 10.7711 3Z" fill="black" fill-opacity="0.76"/>
</svg>