<svg width="20" height="20" viewBox="0 0 20 20" fill="none" xmlns="http://www.w3.org/2000/svg">
    <path d="M3.77344 9.5C3.77344 12.9216 6.41721 15.7257 9.77344 15.9811V16.9836C5.86442 16.7263 2.77344 13.4741 2.77344 9.5C2.77344 5.35786 6.1313 2 10.2734 2C14.2476 2 17.4998 5.09102 17.757 9.00007C17.0236 9.00595 16.3842 9.40661 16.041 10H11.2734C10.445 10 9.77344 9.32843 9.77344 8.5V3.01894C6.41721 3.27426 3.77344 6.07838 3.77344 9.5ZM16.7545 9C16.5117 5.8088 13.9646 3.2617 10.7734 3.01894V8.5C10.7734 8.77614 10.9973 9 11.2734 9H16.7545ZM16.7734 11C16.7734 10.4477 17.2211 10 17.7734 10C18.3257 10 18.7734 10.4477 18.7734 11V18C18.7734 18.5523 18.3257 19 17.7734 19C17.2211 19 16.7734 18.5523 16.7734 18V11ZM10.7734 15C10.7734 14.4477 11.2212 14 11.7734 14C12.3257 14 12.7734 14.4477 12.7734 15V18C12.7734 18.5523 12.3257 19 11.7734 19C11.2212 19 10.7734 18.5523 10.7734 18V15ZM13.7734 13C13.7734 12.4477 14.2212 12 14.7734 12C15.3257 12 15.7734 12.4477 15.7734 13V18C15.7734 18.5523 15.3257 19 14.7734 19C14.2212 19 13.7734 18.5523 13.7734 18V13Z" fill="#212121"/>
</svg>
