<svg xmlns="http://www.w3.org/2000/svg" width="20" height="20" viewBox="0 0 21 20" fill="none">
    <path d="M15.6848 7.21569C15.8198 7.41056 15.8006 7.67999 15.627 7.85355C15.4317 8.04882 15.1151 8.04882 14.9199 7.85355L10.7734 3.70711L6.62699 7.85355L6.55774 7.91141C6.36288 8.0464 6.09345 8.02712 5.91988 7.85355C5.72462 7.65829 5.72462 7.34171 5.91988 7.14645L10.4199 2.64645L10.4891 2.58859C10.684 2.4536 10.9534 2.47288 11.127 2.64645L15.627 7.14645L15.6848 7.21569ZM5.86203 12.7843C5.72703 12.5894 5.74632 12.32 5.91988 12.1464C6.11515 11.9512 6.43173 11.9512 6.62699 12.1464L10.7734 16.2929L14.9199 12.1464L14.9891 12.0886C15.184 11.9536 15.4534 11.9729 15.627 12.1464C15.8223 12.3417 15.8223 12.6583 15.627 12.8536L11.127 17.3536L11.0577 17.4114C10.8629 17.5464 10.5934 17.5271 10.4199 17.3536L5.91988 12.8536L5.86203 12.7843Z" fill="black" fill-opacity="0.5"/>
</svg>