<svg width="20" height="20" viewBox="0 0 20 20" fill="none" xmlns="http://www.w3.org/2000/svg">
    <path d="M6.77344 3C5.11658 3 3.77344 4.34315 3.77344 6V14C3.77344 15.6569 5.11658 17 6.77344 17H14.7734C16.4303 17 17.7734 15.6569 17.7734 14V6C17.7734 4.34315 16.4303 3 14.7734 3H6.77344ZM4.77344 6C4.77344 4.89543 5.66887 4 6.77344 4H14.7734C15.878 4 16.7734 4.89543 16.7734 6V14C16.7734 15.1046 15.878 16 14.7734 16H6.77344C5.66887 16 4.77344 15.1046 4.77344 14V6ZM14.627 7.85355C14.8223 7.65829 14.8223 7.34171 14.627 7.14645C14.4317 6.95118 14.1151 6.95118 13.9199 7.14645L9.27344 11.7929L7.62699 10.1464C7.43173 9.95118 7.11515 9.95118 6.91988 10.1464C6.72462 10.3417 6.72462 10.6583 6.91988 10.8536L8.91988 12.8536C9.11515 13.0488 9.43173 13.0488 9.62699 12.8536L14.627 7.85355Z" fill="black" fill-opacity="0.76"/>
</svg>
