<svg width="16" height="16" viewBox="0 0 16 16" fill="none" xmlns="http://www.w3.org/2000/svg">
    <path d="M1.60003 3.59995C1.60003 3.37904 1.77911 3.19995 2.00003 3.19995H14C14.2209 3.19995 14.4 3.37904 14.4 3.59995C14.4 3.82087 14.2209 3.99995 14 3.99995H2.00003C1.77911 3.99995 1.60003 3.82087 1.60003 3.59995ZM1.60003 7.59995C1.60003 7.37904 1.77911 7.19995 2.00003 7.19995H14C14.2209 7.19995 14.4 7.37904 14.4 7.59995C14.4 7.82087 14.2209 7.99995 14 7.99995H2.00003C1.77911 7.99995 1.60003 7.82087 1.60003 7.59995ZM6.06912 10.4C5.57881 10.4 5.19432 10.8436 5.19432 11.309C5.19432 11.53 5.01524 11.709 4.79433 11.709C4.57341 11.709 4.39433 11.53 4.39433 11.309C4.39433 10.4653 5.07603 9.59995 6.06912 9.59995C6.65312 9.59995 7.21182 9.87468 7.52282 10.3554C7.84548 10.8542 7.86052 11.5087 7.47682 12.1654C7.2817 12.4993 7.01275 12.7537 6.74613 12.9655C6.61255 13.0715 6.47462 13.1707 6.34358 13.2638C6.32453 13.2773 6.30566 13.2907 6.28697 13.304C6.17451 13.3838 6.06818 13.4592 5.96522 13.5371C5.61376 13.8031 5.3597 14.0547 5.25181 14.4H7.32841C7.54932 14.4 7.72841 14.579 7.72841 14.8C7.72841 15.0209 7.54932 15.2 7.32841 15.2H4.80624C4.80425 15.2 4.80226 15.1999 4.80028 15.1999C4.7983 15.1999 4.79631 15.2 4.79433 15.2C4.57341 15.2 4.39433 15.0209 4.39433 14.8C4.39433 13.8441 4.94735 13.3041 5.4825 12.8992C5.59609 12.8132 5.71364 12.7298 5.82555 12.6504C5.84391 12.6374 5.86213 12.6245 5.88014 12.6117C6.01053 12.519 6.13321 12.4306 6.24861 12.339C6.47996 12.1553 6.6625 11.9733 6.78608 11.7618C7.03977 11.3276 6.9872 11.0003 6.85113 10.7899C6.70339 10.5616 6.41224 10.4 6.06912 10.4ZM9.65499 10.6156C9.52376 10.732 9.45452 10.8773 9.42481 10.982C9.36446 11.1945 9.14326 11.3178 8.93075 11.2575C8.71824 11.1971 8.59489 10.9759 8.65524 10.7634C8.7164 10.548 8.85358 10.257 9.12416 10.0171C9.40241 9.77027 9.79698 9.59995 10.3253 9.59995C11.4004 9.59995 12.0105 10.3873 12.0105 11.0909C12.0105 11.3731 11.9562 11.8055 11.6653 12.1735C11.6078 12.2462 11.5432 12.3138 11.4713 12.3755C11.5795 12.4557 11.6809 12.5541 11.7665 12.6749C11.9236 12.8967 12.0105 13.1701 12.0105 13.4909C12.0105 14.0754 11.8149 14.5239 11.4677 14.8185C11.1323 15.1033 10.7076 15.2 10.3253 15.2C9.96338 15.2 9.6101 15.1393 9.30718 14.9465C8.99682 14.7489 8.78833 14.4442 8.65986 14.0516C8.59115 13.8417 8.70566 13.6158 8.91561 13.5471C9.12557 13.4784 9.35147 13.5929 9.42018 13.8028C9.50593 14.0648 9.61875 14.1965 9.7368 14.2716C9.86229 14.3515 10.0445 14.4 10.3253 14.4C10.5856 14.4 10.8035 14.333 10.95 14.2086C11.0848 14.0942 11.2105 13.8881 11.2105 13.4909C11.2105 13.3207 11.1667 13.2123 11.1137 13.1375C11.0581 13.0589 10.9743 12.9926 10.8606 12.939C10.6228 12.8269 10.319 12.8 10.1111 12.8C9.89015 12.8 9.71106 12.6209 9.71106 12.4C9.71106 12.179 9.89015 12 10.1111 12C10.6752 12 10.9202 11.826 11.0377 11.6773C11.1694 11.5108 11.2105 11.2886 11.2105 11.0909C11.2105 10.8344 10.9638 10.4 10.3253 10.4C9.98115 10.4 9.77853 10.506 9.65499 10.6156ZM2.40805 11.4918C2.20389 11.7133 1.97304 11.9136 1.72835 12.0777C1.54485 12.2007 1.29638 12.1516 1.17338 11.9681C1.05037 11.7846 1.09941 11.5362 1.28291 11.4131C1.86879 11.0204 2.31378 10.3902 2.41719 9.91492C2.41719 9.91492 2.50442 9.59995 2.78567 9.59995C3.1863 9.59995 3.20805 9.99995 3.20805 9.99995V14.8C3.20805 15.0209 3.02896 15.2 2.80805 15.2C2.58713 15.2 2.40805 15.0209 2.40805 14.8V11.4918ZM12.8 11.6C12.8 11.379 12.9791 11.2 13.2 11.2H14C14.2209 11.2 14.4 11.379 14.4 11.6C14.4 11.8209 14.2209 12 14 12H13.2C12.9791 12 12.8 11.8209 12.8 11.6Z" fill="black" fill-opacity="0.5"/>
</svg>
