<svg width="17" height="16" viewBox="0 0 17 16" fill="none" xmlns="http://www.w3.org/2000/svg">
    <path d="M6.77344 9C7.70535 9 8.4884 9.63738 8.71042 10.5L14.2734 10.5C14.5496 10.5 14.7734 10.7239 14.7734 11C14.7734 11.2455 14.5966 11.4496 14.3633 11.4919L14.2734 11.5L8.71017 11.501C8.48779 12.3631 7.70499 13 6.77344 13C5.84189 13 5.05909 12.3631 4.83671 11.501L3.27344 11.5C2.9973 11.5 2.77344 11.2761 2.77344 11C2.77344 10.7545 2.95031 10.5504 3.18356 10.5081L3.27344 10.5L4.83645 10.5C5.05848 9.63738 5.84152 9 6.77344 9ZM6.77344 10C6.22115 10 5.77344 10.4477 5.77344 11C5.77344 11.5523 6.22115 12 6.77344 12C7.32572 12 7.77344 11.5523 7.77344 11C7.77344 10.4477 7.32572 10 6.77344 10ZM10.7734 3C11.7053 3 12.4884 3.63738 12.7104 4.49998L14.2734 4.5C14.5496 4.5 14.7734 4.72386 14.7734 5C14.7734 5.24546 14.5966 5.44961 14.3633 5.49194L14.2734 5.5L12.7102 5.50102C12.4878 6.36312 11.705 7 10.7734 7C9.84189 7 9.05909 6.36312 8.83671 5.50102L3.27344 5.5C2.9973 5.5 2.77344 5.27614 2.77344 5C2.77344 4.75454 2.95031 4.55039 3.18356 4.50806L3.27344 4.5L8.83645 4.49998C9.05848 3.63738 9.84152 3 10.7734 3ZM10.7734 4C10.2212 4 9.77344 4.44772 9.77344 5C9.77344 5.55228 10.2212 6 10.7734 6C11.3257 6 11.7734 5.55228 11.7734 5C11.7734 4.44772 11.3257 4 10.7734 4Z" fill="black" fill-opacity="0.76"/>
</svg>
