<svg width="17" height="16" viewBox="0 0 17 16" fill="none" xmlns="http://www.w3.org/2000/svg">
    <path d="M5.62699 2.14645C5.43173 1.95118 5.11515 1.95118 4.91988 2.14645L1.91988 5.14645C1.72462 5.34171 1.72462 5.65829 1.91988 5.85355C2.11515 6.04882 2.43173 6.04882 2.62699 5.85355L4.77344 3.70711V13.5C4.77344 13.7761 4.9973 14 5.27344 14C5.54958 14 5.77344 13.7761 5.77344 13.5V3.70711L7.91988 5.85355C8.11515 6.04882 8.43173 6.04882 8.62699 5.85355C8.82225 5.65829 8.82225 5.34171 8.62699 5.14645L5.62699 2.14645ZM11.9259 13.8595C12.1197 14.0468 12.4272 14.0468 12.621 13.8595L15.621 10.9594C15.8195 10.7675 15.8249 10.4509 15.6329 10.2524C15.441 10.0538 15.1245 10.0485 14.9259 10.2404L12.7734 12.3212L12.7734 2.5001C12.7734 2.22395 12.5496 2.0001 12.2734 2.0001C11.9973 2.0001 11.7734 2.22395 11.7734 2.5001L11.7734 12.3212L9.62095 10.2404C9.42242 10.0485 9.10588 10.0538 8.91395 10.2524C8.72202 10.4509 8.72738 10.7675 8.92592 10.9594L11.9259 13.8595Z" fill="black" fill-opacity="0.76"/>
</svg>
