<svg width="16" height="16" viewBox="0 0 16 16" fill="none" xmlns="http://www.w3.org/2000/svg">
    <path d="M14.3536 1.64639C13.4679 0.760772 12.0321 0.760775 11.1465 1.64639L6.89646 5.89639C6.84157 5.95128 6.80022 6.01819 6.77567 6.09183L5.52567 9.84183C5.46578 10.0215 5.51254 10.2196 5.64646 10.3535C5.78038 10.4874 5.97846 10.5342 6.15813 10.4743L9.90813 9.22429C9.98177 9.19974 10.0487 9.15838 10.1036 9.1035L14.3536 4.8535C15.2392 3.96788 15.2392 2.53201 14.3536 1.64639ZM11.8536 2.3535C12.3487 1.8584 13.1514 1.8584 13.6465 2.3535C14.1416 2.84859 14.1416 3.6513 13.6465 4.14639L9.47992 8.31293L6.79058 9.20937L7.68703 6.52003L11.8536 2.3535ZM8 2.99995C8.12292 2.99995 8.2448 3.00438 8.3655 3.0131L9.24857 2.13004C8.84581 2.04479 8.42814 1.99995 8 1.99995C4.68629 1.99995 2 4.68624 2 7.99995C2 11.3137 4.68629 13.9999 8 13.9999C11.3137 13.9999 14 11.3137 14 7.99995C14 7.57179 13.9552 7.15411 13.8699 6.75134L12.9868 7.6344C12.9956 7.75511 13 7.87701 13 7.99995C13 10.7614 10.7614 12.9999 8 12.9999C5.23858 12.9999 3 10.7614 3 7.99995C3 5.23852 5.23858 2.99995 8 2.99995Z" fill="black" fill-opacity="0.5"/>
</svg>
